<svg xmlns="http://www.w3.org/2000/svg" width="24" height="24" viewBox="0 0 24 24" fill="none">
<path d="M9.04173 21.003H14.9583C14.7196 22.4211 13.486 23.5015 12 23.5015C10.514 23.5015 9.28037 22.4211 9.04173 21.003ZM12 4.00391C16.1421 4.00391 19.5 7.36177 19.5 11.5039V15.5024L20.9183 18.6625C20.9732 18.7848 21.0016 18.9174 21.0016 19.0515C21.0016 19.5762 20.5763 20.0015 20.0516 20.0015H3.95219C3.8184 20.0015 3.68613 19.9733 3.56402 19.9186C3.08515 19.7042 2.87073 19.1422 3.08511 18.6633L4.50001 15.5028L4.50011 11.491L4.50453 11.2411C4.6436 7.21035 7.95588 4.00391 12 4.00391Z" fill="#83888D"/>
<path d="M17 9C19.2091 9 21 7.20914 21 5C21 2.79086 19.2091 1 17 1C14.7909 1 13 2.79086 13 5C13 7.20914 14.7909 9 17 9Z" fill="#E94D3F" stroke="#2D333A" stroke-width="2"/>
</svg>