<svg xmlns="http://www.w3.org/2000/svg" width="25" height="25" viewBox="0 0 20 21" fill="none">
<path d="M4.5 17.4999C3.7203 17.4999 3.07955 16.9051 3.00687 16.1444L3 15.9999V4.99994C3 4.22024 3.59489 3.57949 4.35554 3.50681L4.5 3.49994H9C9.7797 3.49994 10.4204 4.09483 10.4931 4.85548L10.5 4.99994V5.25437L12.6886 2.98512C13.2276 2.42593 14.0959 2.37562 14.6956 2.847L14.8118 2.94824L17.5694 5.67289C18.1219 6.21878 18.1614 7.08763 17.68 7.68407L17.5767 7.79955L15.266 9.99937L15.5 9.99994C16.2797 9.99994 16.9204 10.5948 16.9931 11.3555L17 11.4999V15.9999C17 16.7796 16.4051 17.4204 15.6445 17.4931L15.5 17.4999H4.5ZM9.5 10.9999H4V15.9999C4 16.2147 4.13542 16.3979 4.32553 16.4687L4.41012 16.4919L4.5 16.4999H9.5V10.9999ZM15.5 10.9999H10.5V16.4999H15.5C15.7455 16.4999 15.9496 16.3231 15.9919 16.0898L16 15.9999V11.4999C16 11.2545 15.8231 11.0503 15.5899 11.008L15.5 10.9999ZM10.5 8.20937V9.99937H12.29L10.5 8.20937ZM9 4.49994H4.5C4.25454 4.49994 4.05039 4.67681 4.00806 4.91006L4 4.99994V9.99994H9.5V4.99994C9.5 4.78516 9.36458 4.60201 9.17447 4.53122L9.08988 4.508L9 4.49994ZM14.1222 3.67259C13.9396 3.49646 13.6692 3.48149 13.4768 3.61998L13.4086 3.67909L10.7926 6.39323C10.6271 6.56494 10.6086 6.82495 10.7356 7.01638L10.799 7.09377L13.4147 9.70949C13.5826 9.8774 13.8409 9.90129 14.0345 9.77924L14.1131 9.718L16.8708 7.09133C17.0433 6.91673 17.061 6.64719 16.9248 6.45313L16.8665 6.38423L14.1222 3.67259Z" fill="white"/>
</svg>
